<svg xmlns="http://www.w3.org/2000/svg" xmlns:xlink="http://www.w3.org/1999/xlink" width="800" height="450" viewBox="0 0 800 450">
  <defs>
    <clipPath id="clip-thumbnail">
      <rect width="800" height="450"/>
    </clipPath>
  </defs>
  <g id="thumbnail" clip-path="url(#clip-thumbnail)">
    <rect width="800" height="450"/>
    <path id="Path_1" data-name="Path 1" d="M640.862,228.788V212.2l-1.044-3.779-2.783-2.175-78.672-45.928-8.93-3.238L538.8,160.322,465.231,203.7l-3.6,2.641-2.353,3.738v51.031l1.883,4.141,4.07,3.089,84.2,51.456,19.137-12.332-85.9-48.9-4.678-4.253.054-34.793,2.512-3.631L538.8,182.86l10.631-3.889,8.93,3.889Z" transform="translate(-149.644 -35.471)" fill="#fff"/>
    <path id="Path_2" data-name="Path 2" d="M531.571,213.479l84.2,50.18,4.086,2.747,1.017,3.207v30.618l-62.513,37.423-9.781,4.565-9.781-4.565L458.427,291.3v14.033a29.747,29.747,0,0,0,.854,4.524,38.637,38.637,0,0,0,1.707,4.68l2.7,2.808,3.593,2.446,71.521,41.25,4.778,2.03,5,.786,5.076-.786,4.7-2.03,73.995-41.25,4.54-3.327,2.115-2.643,1-3.811V259.406l-1.7-4-4.249-4.084L548.581,202Z" transform="translate(-149.644 -35.471)" fill="#00ff90"/>
    <path id="Path_4" data-name="Path 4" d="M0,0,106.294-.82,112.1,9.238,106,19H0L-6.448,9.083Z" transform="translate(358.682 191.418) rotate(30)" fill="#1f0"/>
  </g>
</svg>
